<?xml version="1.0" encoding="UTF-8" standalone="no"?>
<!DOCTYPE svg PUBLIC "-//W3C//DTD SVG 20010904//EN"
              "http://www.w3.org/TR/2001/REC-SVG-20010904/DTD/svg10.dtd">

<svg xmlns="http://www.w3.org/2000/svg"
     width="20in" height="23.8778in"
     viewBox="0 0 1800 2149">
  <path id="e0"
        fill="none" stroke="black" stroke-width="1"
        d="M 639.37,490.53
           C 639.37,490.53 639.37,576.04 639.37,576.04
             639.37,576.04 387.37,576.04 387.37,576.04
             387.37,576.04 387.37,490.53 387.37,490.53
             387.37,490.53 639.37,490.53 639.37,490.53 Z
           M 578.88,134.23
           C 578.88,134.23 578.88,147.92 578.88,147.92
             578.88,147.92 565.20,147.92 565.20,147.92
             565.20,147.92 565.20,134.23 565.20,134.23
             565.20,134.23 578.88,134.23 578.88,134.23 Z
           M 369.21,679.40
           C 369.21,679.40 369.21,742.23 369.21,742.23
             369.21,742.23 379.83,742.23 379.83,742.23
             379.83,742.23 379.83,817.84 379.83,817.84
             379.83,817.84 369.21,817.84 369.21,817.84
             369.21,817.84 369.21,880.66 369.21,880.66
             369.21,880.66 446.34,880.66 446.34,880.66
             446.34,880.66 446.34,870.04 446.34,870.04
             446.34,870.04 522.03,870.04 522.03,870.04
             522.03,870.04 522.03,880.66 522.03,880.66
             522.03,880.66 597.63,880.66 597.63,880.66
             597.63,880.66 597.63,870.04 597.63,870.04
             597.63,870.04 673.32,870.04 673.32,870.04
             673.32,870.04 673.32,880.66 673.32,880.66
             673.32,880.66 750.45,880.66 750.45,880.66
             750.45,880.66 750.45,817.84 750.45,817.84
             750.45,817.84 739.83,817.84 739.83,817.84
             739.83,817.84 739.83,742.23 739.83,742.23
             739.83,742.23 750.45,742.23 750.45,742.23
             750.45,742.23 750.45,679.40 750.45,679.40
             750.45,679.40 673.32,679.40 673.32,679.40
             673.32,679.40 673.32,690.02 673.32,690.02
             673.32,690.02 597.63,690.02 597.63,690.02
             597.63,690.02 597.63,679.40 597.63,679.40
             597.63,679.40 522.03,679.40 522.03,679.40
             522.03,679.40 522.03,690.02 522.03,690.02
             522.03,690.02 446.34,690.02 446.34,690.02
             446.34,690.02 446.34,679.40 446.34,679.40
             446.34,679.40 369.21,679.40 369.21,679.40 Z
           M 654.22,182.80
           C 654.22,182.80 654.22,196.48 654.22,196.48
             654.22,196.48 640.54,196.48 640.54,196.48
             640.54,196.48 640.54,182.80 640.54,182.80
             640.54,182.80 654.22,182.80 654.22,182.80 Z
           M 1290.26,747.68
           C 1290.26,753.39 1285.63,758.03 1279.91,758.03
             1274.20,758.03 1269.56,753.39 1269.56,747.68
             1269.56,741.96 1274.20,737.33 1279.91,737.33
             1285.63,737.33 1290.26,741.96 1290.26,747.68
             1290.26,747.68 1290.26,747.68 1290.26,747.68 Z
           M 1099.91,691.03
           C 1099.91,691.03 1099.91,743.24 1099.91,743.24
             1099.91,743.24 1089.29,743.24 1089.29,743.24
             1089.29,743.24 1089.29,818.85 1089.29,818.85
             1089.29,818.85 1099.91,818.85 1099.91,818.85
             1099.91,818.85 1099.91,871.05 1099.91,871.05
             1099.91,871.05 1166.42,871.05 1166.42,871.05
             1166.42,871.05 1166.42,881.67 1166.42,881.67
             1166.42,881.67 1242.11,881.67 1242.11,881.67
             1242.11,881.67 1242.11,871.05 1242.11,871.05
             1242.11,871.05 1317.71,871.05 1317.71,871.05
             1317.71,871.05 1317.71,881.67 1317.71,881.67
             1317.71,881.67 1393.40,881.67 1393.40,881.67
             1393.40,881.67 1393.40,871.05 1393.40,871.05
             1393.40,871.05 1459.91,871.05 1459.91,871.05
             1459.91,871.05 1459.91,818.85 1459.91,818.85
             1459.91,818.85 1470.53,818.85 1470.53,818.85
             1470.53,818.85 1470.53,743.24 1470.53,743.24
             1470.53,743.24 1459.91,743.24 1459.91,743.24
             1459.91,743.24 1459.91,691.03 1459.91,691.03
             1459.91,691.03 1393.40,691.03 1393.40,691.03
             1393.40,691.03 1393.40,680.41 1393.40,680.41
             1393.40,680.41 1317.71,680.41 1317.71,680.41
             1317.71,680.41 1317.71,691.03 1317.71,691.03
             1317.71,691.03 1242.11,691.03 1242.11,691.03
             1242.11,691.03 1242.11,680.41 1242.11,680.41
             1242.11,680.41 1166.42,680.41 1166.42,680.41
             1166.42,680.41 1166.42,691.03 1166.42,691.03
             1166.42,691.03 1099.91,691.03 1099.91,691.03 Z
           M 824.25,739.28
           C 824.25,739.28 824.25,766.28 824.25,766.28
             824.25,766.28 761.25,766.28 761.25,766.28
             761.25,766.28 761.25,739.28 761.25,739.28
             761.25,739.28 824.25,739.28 824.25,739.28 Z
           M 824.25,778.88
           C 824.25,778.88 824.25,805.88 824.25,805.88
             824.25,805.88 761.25,805.88 761.25,805.88
             761.25,805.88 761.25,778.88 761.25,778.88
             761.25,778.88 824.25,778.88 824.25,778.88 Z
           M 385.67,478.70
           C 385.67,481.68 383.25,484.10 380.27,484.10
             377.29,484.10 374.87,481.68 374.87,478.70
             374.87,475.71 377.29,473.30 380.27,473.30
             383.25,473.30 385.67,475.71 385.67,478.70
             385.67,478.70 385.67,478.70 385.67,478.70 Z
           M 1054.69,694.77
           C 1054.69,694.77 991.87,694.79 991.87,694.79
             991.87,694.79 991.87,684.16 991.87,684.16
             991.87,684.16 916.27,684.18 916.27,684.18
             916.27,684.18 916.27,694.80 916.27,694.80
             916.27,694.80 853.45,694.81 853.45,694.81
             853.45,694.81 853.46,747.02 853.46,747.02
             853.46,747.02 864.08,747.02 864.08,747.02
             864.08,747.02 864.10,822.63 864.10,822.63
             864.10,822.63 853.48,822.63 853.48,822.63
             853.48,822.63 853.49,874.83 853.49,874.83
             853.49,874.83 916.31,874.82 916.31,874.82
             916.31,874.82 916.31,885.44 916.31,885.44
             916.31,885.44 991.91,885.43 991.91,885.43
             991.91,885.43 991.91,874.81 991.91,874.81
             991.91,874.81 1054.73,874.79 1054.73,874.79
             1054.73,874.79 1054.72,822.59 1054.72,822.59
             1054.72,822.59 1044.10,822.59 1044.10,822.59
             1044.10,822.59 1044.08,746.98 1044.08,746.98
             1044.08,746.98 1054.70,746.98 1054.70,746.98
             1054.70,746.98 1054.69,694.77 1054.69,694.77 Z
           M 824.25,817.70
           C 824.25,817.70 824.25,844.71 824.25,844.71
             824.25,844.71 761.25,844.71 761.25,844.71
             761.25,844.71 761.25,817.70 761.25,817.70
             761.25,817.70 824.25,817.70 824.25,817.70 Z
           M 962.44,560.55
           C 962.44,560.55 962.44,603.13 962.44,603.13
             962.44,603.13 919.87,603.13 919.87,603.13
             919.87,603.13 919.87,560.55 919.87,560.55
             919.87,560.55 962.44,560.55 962.44,560.55 Z
           M 385.66,586.54
           C 385.66,589.52 383.24,591.94 380.26,591.94
             377.28,591.94 374.86,589.52 374.86,586.54
             374.86,583.55 377.28,581.13 380.26,581.13
             383.24,581.13 385.66,583.55 385.66,586.54
             385.66,586.54 385.66,586.54 385.66,586.54 Z
           M 833.16,515.55
           C 833.16,515.55 833.16,558.12 833.16,558.12
             833.16,558.12 790.59,558.12 790.59,558.12
             790.59,558.12 790.59,515.55 790.59,515.55
             790.59,515.55 833.16,515.55 833.16,515.55 Z
           M 692.82,351.21
           C 692.82,372.34 675.69,389.46 654.57,389.46
             633.44,389.46 616.32,372.34 616.32,351.21
             616.32,330.08 633.44,312.95 654.57,312.95
             675.69,312.95 692.82,330.08 692.82,351.21
             692.82,351.21 692.82,351.21 692.82,351.21 Z
           M 1091.72,515.55
           C 1091.72,515.55 1091.72,558.12 1091.72,558.12
             1091.72,558.12 1049.15,558.12 1049.15,558.12
             1049.15,558.12 1049.15,515.55 1049.15,515.55
             1049.15,515.55 1091.72,515.55 1091.72,515.55 Z
           M 651.17,478.70
           C 651.17,481.68 648.75,484.10 645.77,484.10
             642.79,484.10 640.37,481.68 640.37,478.70
             640.37,475.71 642.79,473.30 645.77,473.30
             648.75,473.30 651.17,475.71 651.17,478.70
             651.17,478.70 651.17,478.70 651.17,478.70 Z
           M 670.28,271.86
           C 670.28,292.99 653.16,310.11 632.03,310.11
             610.91,310.11 593.78,292.99 593.78,271.86
             593.78,250.73 610.91,233.60 632.03,233.60
             653.16,233.60 670.28,250.73 670.28,271.86
             670.28,271.86 670.28,271.86 670.28,271.86 Z
           M 883.73,532.33
           C 883.73,532.33 883.73,541.33 883.73,541.33
             883.73,541.33 872.03,541.33 872.03,541.33
             872.03,541.33 872.03,532.33 872.03,532.33
             872.03,532.33 883.73,532.33 883.73,532.33 Z
           M 638.87,265.02
           C 638.87,265.02 638.87,278.70 638.87,278.70
             638.87,278.70 625.19,278.70 625.19,278.70
             625.19,278.70 625.19,265.02 625.19,265.02
             625.19,265.02 638.87,265.02 638.87,265.02 Z
           M 610.29,141.70
           C 610.29,162.83 593.16,179.96 572.04,179.96
             550.91,179.96 533.79,162.83 533.79,141.70
             533.79,120.58 550.91,103.45 572.04,103.45
             593.16,103.45 610.29,120.58 610.29,141.70
             610.29,141.70 610.29,141.70 610.29,141.70 Z
           M 651.16,586.54
           C 651.16,589.52 648.74,591.94 645.76,591.94
             642.78,591.94 640.36,589.52 640.36,586.54
             640.36,583.55 642.78,581.13 645.76,581.13
             648.74,581.13 651.16,583.55 651.16,586.54
             651.16,586.54 651.16,586.54 651.16,586.54 Z
           M 685.63,189.02
           C 685.63,210.14 668.50,227.27 647.38,227.27
             626.25,227.27 609.13,210.14 609.13,189.02
             609.13,167.89 626.25,150.76 647.38,150.76
             668.50,150.76 685.63,167.89 685.63,189.02
             685.63,189.02 685.63,189.02 685.63,189.02 Z
           M 588.61,189.17
           C 588.61,189.17 525.79,189.18 525.79,189.18
             525.79,189.18 525.79,178.56 525.79,178.56
             525.79,178.56 450.19,178.58 450.19,178.58
             450.19,178.58 450.19,189.20 450.19,189.20
             450.19,189.20 387.37,189.21 387.37,189.21
             387.37,189.21 387.38,241.42 387.38,241.42
             387.38,241.42 398.00,241.41 398.00,241.41
             398.00,241.41 398.02,317.02 398.02,317.02
             398.02,317.02 387.40,317.02 387.40,317.02
             387.40,317.02 387.41,369.23 387.41,369.23
             387.41,369.23 450.23,369.22 450.23,369.22
             450.23,369.22 450.23,379.84 450.23,379.84
             450.23,379.84 525.83,379.82 525.83,379.82
             525.83,379.82 525.83,369.20 525.83,369.20
             525.83,369.20 588.65,369.19 588.65,369.19
             588.65,369.19 588.64,316.98 588.64,316.98
             588.64,316.98 578.02,316.99 578.02,316.99
             578.02,316.99 578.00,241.38 578.00,241.38
             578.00,241.38 588.62,241.37 588.62,241.37
             588.62,241.37 588.61,189.17 588.61,189.17 Z
           M 333.09,442.62
           C 333.09,442.62 333.09,494.82 333.09,494.82
             333.09,494.82 322.47,494.82 322.47,494.82
             322.47,494.82 322.47,570.43 322.47,570.43
             322.47,570.43 333.09,570.43 333.09,570.43
             333.09,570.43 333.09,622.64 333.09,622.64
             333.09,622.64 399.60,622.64 399.60,622.64
             399.60,622.64 399.60,633.26 399.60,633.26
             399.60,633.26 475.29,633.26 475.29,633.26
             475.29,633.26 475.29,622.64 475.29,622.64
             475.29,622.64 550.89,622.64 550.89,622.64
             550.89,622.64 550.89,633.26 550.89,633.26
             550.89,633.26 626.58,633.26 626.58,633.26
             626.58,633.26 626.58,622.64 626.58,622.64
             626.58,622.64 693.09,622.64 693.09,622.64
             693.09,622.64 693.09,570.43 693.09,570.43
             693.09,570.43 703.71,570.43 703.71,570.43
             703.71,570.43 703.71,494.82 703.71,494.82
             703.71,494.82 693.09,494.82 693.09,494.82
             693.09,494.82 693.09,442.62 693.09,442.62
             693.09,442.62 626.58,442.62 626.58,442.62
             626.58,442.62 626.58,432.00 626.58,432.00
             626.58,432.00 550.89,432.00 550.89,432.00
             550.89,432.00 550.89,442.62 550.89,442.62
             550.89,442.62 475.29,442.62 475.29,442.62
             475.29,442.62 475.29,432.00 475.29,432.00
             475.29,432.00 399.60,432.00 399.60,432.00
             399.60,432.00 399.60,442.62 399.60,442.62
             399.60,442.62 333.09,442.62 333.09,442.62 Z
           M 750.54,436.20
           C 750.54,436.20 750.54,499.03 750.54,499.03
             750.54,499.03 761.16,499.03 761.16,499.03
             761.16,499.03 761.16,574.64 761.16,574.64
             761.16,574.64 750.54,574.64 750.54,574.64
             750.54,574.64 750.54,637.46 750.54,637.46
             750.54,637.46 827.67,637.46 827.67,637.46
             827.67,637.46 827.67,626.84 827.67,626.84
             827.67,626.84 903.36,626.84 903.36,626.84
             903.36,626.84 903.36,637.46 903.36,637.46
             903.36,637.46 978.96,637.46 978.96,637.46
             978.96,637.46 978.96,626.84 978.96,626.84
             978.96,626.84 1054.65,626.84 1054.65,626.84
             1054.65,626.84 1054.65,637.46 1054.65,637.46
             1054.65,637.46 1131.78,637.46 1131.78,637.46
             1131.78,637.46 1131.78,574.64 1131.78,574.64
             1131.78,574.64 1121.16,574.64 1121.16,574.64
             1121.16,574.64 1121.16,499.03 1121.16,499.03
             1121.16,499.03 1131.78,499.03 1131.78,499.03
             1131.78,499.03 1131.78,436.20 1131.78,436.20
             1131.78,436.20 1054.65,436.20 1054.65,436.20
             1054.65,436.20 1054.65,446.82 1054.65,446.82
             1054.65,446.82 978.96,446.82 978.96,446.82
             978.96,446.82 978.96,436.20 978.96,436.20
             978.96,436.20 903.36,436.20 903.36,436.20
             903.36,436.20 903.36,446.82 903.36,446.82
             903.36,446.82 827.67,446.82 827.67,446.82
             827.67,446.82 827.67,436.20 827.67,436.20
             827.67,436.20 750.54,436.20 750.54,436.20 Z
           M 962.44,470.54
           C 962.44,470.54 962.44,513.11 962.44,513.11
             962.44,513.11 919.87,513.11 919.87,513.11
             919.87,513.11 919.87,470.54 919.87,470.54
             919.87,470.54 962.44,470.54 962.44,470.54 Z
           M 661.41,344.37
           C 661.41,344.37 661.41,358.05 661.41,358.05
             661.41,358.05 647.73,358.05 647.73,358.05
             647.73,358.05 647.73,344.37 647.73,344.37
             647.73,344.37 661.41,344.37 661.41,344.37 Z
           M 1010.28,532.33
           C 1010.28,532.33 1010.28,541.33 1010.28,541.33
             1010.28,541.33 998.58,541.33 998.58,541.33
             998.58,541.33 998.58,532.33 998.58,532.33
             998.58,532.33 1010.28,532.33 1010.28,532.33 Z
           M 495.23,265.70
           C 495.23,265.70 495.23,292.70 495.23,292.70
             495.23,292.70 480.83,292.70 480.83,292.70
             480.83,292.70 480.83,265.70 480.83,265.70
             480.83,265.70 495.23,265.70 495.23,265.70 Z
           M 824.25,700.45
           C 824.25,700.45 824.25,727.46 824.25,727.46
             824.25,727.46 761.25,727.46 761.25,727.46
             761.25,727.46 761.25,700.45 761.25,700.45
             761.25,700.45 824.25,700.45 824.25,700.45 Z" />
</svg>
